# xmcd
#
# Track frame offsets: 
#        150
#        20445
#        35601
#        48840
#        71244
#        96408
#        113697
#        138525
#
# Disc length: 2154 seconds
#
# Revision: 0
# Processed by: cddbd v1.5.2PL0 Copyright (c) Steve Scherf et al.
# Submitted via: ExactAudioCopy v0.95a5
#
DISCID=6e086808
DTITLE=Peter Green - Little Dreamer
DYEAR=1980
DGENRE=Blues
TTITLE0=Loser Two Times
TTITLE1=Momma Don'tcha Cry
TTITLE2=Born Under A Bad Sign
TTITLE3=I Could Not Ask For More
TTITLE4=Baby When The Sun Goes Down
TTITLE5=Walkin' The Road
TTITLE6=One Woman Love
TTITLE7=Cryin' Won't Bring You Back
EXTD=
EXTT0=
EXTT1=
EXTT2=
EXTT3=
EXTT4=
EXTT5=
EXTT6=
EXTT7=
PLAYORDER=
